<?xml version="1.0" encoding="UTF-8"?>
<!DOCTYPE svg PUBLIC "-//W3C//DTD SVG 1.1//EN" "http://www.w3.org/Graphics/SVG/1.1/DTD/svg11.dtd">
<svg xmlns="http://www.w3.org/2000/svg" version="1.1" width="512px" height="512px" style="shape-rendering:geometricPrecision; text-rendering:geometricPrecision; image-rendering:optimizeQuality; fill-rule:evenodd; clip-rule:evenodd" xmlns:xlink="http://www.w3.org/1999/xlink">
<g><path style="opacity:0.983" fill="#000000" d="M 121.5,-0.5 C 176.5,-0.5 231.5,-0.5 286.5,-0.5C 259.922,46.5944 233.089,93.5944 206,140.5C 205.311,141.357 204.478,142.023 203.5,142.5C 175.89,94.9416 148.557,47.2749 121.5,-0.5 Z"/></g>
<g><path style="opacity:0.983" fill="#000000" d="M 327.5,-0.5 C 382.833,-0.5 438.167,-0.5 493.5,-0.5C 466.098,47.3029 438.431,94.9696 410.5,142.5C 382.068,95.305 354.401,47.6383 327.5,-0.5 Z"/></g>
<g><path style="opacity:0.98" fill="#000000" d="M 99.5,11.5 C 101.017,11.5106 102.184,12.1772 103,13.5C 129.634,60.2957 156.467,106.962 183.5,153.5C 128.17,154.667 72.8363,154.833 17.5,154C 45.236,106.69 72.5693,59.19 99.5,11.5 Z"/></g>
<g><path style="opacity:0.98" fill="#000000" d="M 306.5,11.5 C 307.376,11.3691 308.043,11.7025 308.5,12.5C 335.753,59.3369 362.753,106.337 389.5,153.5C 334.5,154.833 279.5,154.833 224.5,153.5C 251.845,106.139 279.178,58.8059 306.5,11.5 Z"/></g>
<g><path style="opacity:0.974" fill="#000000" d="M 224.5,177.5 C 279.5,177.5 334.5,177.5 389.5,177.5C 362.801,225.891 335.301,273.891 307,321.5C 278.699,273.891 251.199,225.891 224.5,177.5 Z"/></g>
<g><path style="opacity:0.975" fill="#000000" d="M 203.5,189.5 C 232.193,236.882 259.859,284.882 286.5,333.5C 231.5,333.5 176.5,333.5 121.5,333.5C 148.297,285.246 175.63,237.246 203.5,189.5 Z"/></g>
<g><path style="opacity:0.98" fill="#000000" d="M 121.5,356.5 C 176.504,356.167 231.504,356.5 286.5,357.5C 259,405.167 231.5,452.833 204,500.5C 175.845,452.852 148.345,404.852 121.5,356.5 Z"/></g>
<g><path style="opacity:0.98" fill="#000000" d="M 327.5,356.5 C 382.834,356.333 438.168,356.5 493.5,357C 465.793,404.915 437.96,452.749 410,500.5C 382.224,452.608 354.724,404.608 327.5,356.5 Z"/></g>
<g><path style="opacity:0.983" fill="#000000" d="M 183.5,511.5 C 128.167,511.5 72.8333,511.5 17.5,511.5C 44.9025,463.697 72.5692,416.03 100.5,368.5C 128.932,415.695 156.599,463.362 183.5,511.5 Z"/></g>
<g><path style="opacity:0.983" fill="#000000" d="M 389.5,511.5 C 334.5,511.5 279.5,511.5 224.5,511.5C 251.078,464.406 277.911,417.406 305,370.5C 305.689,369.643 306.522,368.977 307.5,368.5C 335.11,416.058 362.443,463.725 389.5,511.5 Z"/></g>
</svg>
